<?xml version="1.0" encoding="utf-8"?>
<!-- Generator: Adobe Illustrator 18.1.1, SVG Export Plug-In . SVG Version: 6.00 Build 0)  -->
<svg version="1.1" id="Layer_1" xmlns="http://www.w3.org/2000/svg" xmlns:xlink="http://www.w3.org/1999/xlink" x="0px" y="0px"
	 viewBox="0 0 145.8 54.5" enable-background="new 0 0 145.8 54.5" xml:space="preserve">
<g>
	<path fill="#E6E7E8" d="M121.7,28.7h-2.1v3.2h2.1c0.9,0,2.3-0.2,2.3-1.6C124,28.6,121.7,28.7,121.7,28.7z"/>
	<polygon fill="#E6E7E8" points="35.7,26.3 34.2,30.7 37.3,30.7 	"/>
	<path fill="#E6E7E8" d="M27.3,25c0-1.6-2.1-1.6-2.1-1.6h-1.7l2,3.2C26,26.5,27.3,26.2,27.3,25z"/>
	<path fill="#E6E7E8" d="M16.7,25c0-1.6-2.1-1.6-2.1-1.6h-1.7l2,3.2C15.4,26.5,16.7,26.2,16.7,25z"/>
	<path fill="#E6E7E8" d="M4.8,11.7v31.1l68.1,6.1l68.1-6.1V11.7L72.9,5.7L4.8,11.7z M136,14.1H9.8l63.1-4.3L136,14.1z M132,28.7
		c-0.1,0-1,0-1.9-0.4c-1.3-0.6-2.1-1.7-2.1-3.3c0-2.4,1.9-3.9,4-3.9c2.2,0,3.9,1.5,3.9,3.7h-2.1c0-1.1-0.9-1.5-1.8-1.5
		c-1,0-1.9,0.6-1.9,1.8c0,1.1,0.9,1.6,1.9,1.6c0.1,0,1,0,1.9,0.4c1.3,0.6,2.1,1.9,2.1,3.4c0,2.4-1.9,3.8-4,3.8c-2.2-0.1-4-1.3-4-3.7
		h2.1c0,1.1,0.9,1.6,1.9,1.6c1,0,1.9-0.6,1.9-1.6C133.8,29.3,132.8,28.7,132,28.7z M126.1,30.3c0,3.5-3.6,3.7-4.4,3.7h-4.2V21.3h4.2
		c0,0,4.2-0.1,4.2,3.6c0,1.7-1,2.5-2.1,2.8C126.2,28.1,126.1,30.3,126.1,30.3z M116,34h-2.3l-0.6-1.5h-4.5l-0.5,1.5h-2.3l5.1-13.1
		L116,34z M98,23.2v-1.9h7.5v1.9h-2.7V34h-2.1V23.2H98z M89.5,26.6v2.1h-5.3v3.2h6.4V34h-8.5V21.3h8.5v2.1h-6.4v3.2H89.5z
		 M75.4,32.1c1.2,0,2.2-0.5,3-1.2l1.5,1.5c-1.1,1.1-2.7,1.9-4.5,1.9c-3.5,0-6.4-2.6-6.4-6.6c0-3.8,2.7-6.6,6.4-6.6
		c1.8,0,3.4,0.7,4.5,1.9l-1.5,1.5c-0.8-0.8-1.8-1.2-3-1.2c-2.6,0-4.2,1.9-4.2,4.4C71.2,30.4,73.1,32.1,75.4,32.1z M62.3,23.2v-1.9h5
		v1.9h-1.4v8.9h1.5V34h-5.1v-1.9h1.5v-8.9H62.3z M53.8,23.2v-1.9h7.5v1.9h-2.7V34h-2.1V23.2H53.8z M48.2,32.1c1.2,0,2.2-0.5,3-1.2
		l1.5,1.5c-1.1,1.1-2.7,1.9-4.5,1.9c-3.5,0-6.4-2.6-6.4-6.6c0-3.8,2.7-6.6,6.4-6.6c1.8,0,3.4,0.7,4.5,1.9l-1.5,1.5
		c-0.8-0.8-1.8-1.2-3-1.2c-2.6,0-4.2,1.9-4.2,4.4C44,30.4,45.9,32.1,48.2,32.1z M40.8,34h-2.3L38,32.5h-4.5L32.9,34h-2.3l5.1-13.1
		L40.8,34z M21,23.4v-2.1h4.2c0,0,4.3,0,4.3,3.7c0,2.3-1.6,3.2-2.8,3.5l3.5,5.5h-2.5l-3.3-5.3h-1.2V34H21v-7.4h2L21,23.4z
		 M10.3,23.4v-2.1h4.2c0,0,4.2,0,4.2,3.7c0,3.7-4.2,3.7-4.2,3.7h-2.1V34h-2.1v-7.4h2L10.3,23.4z M9.8,40.4H136l-63.1,4.3L9.8,40.4z"
		/>
	<polygon fill="#E6E7E8" points="110.9,26.3 109.4,30.7 112.5,30.7 	"/>
	<path fill="#E6E7E8" d="M121.7,23.4h-2.1v3.2h2.1c0,0,2.1,0,2.1-1.6C123.8,23.3,121.7,23.4,121.7,23.4z"/>
	<path fill="#E6E7E8" d="M72.9,0L0.2,9.1L0,9.1v36.2l72.9,9.1l72.7-9.1l0.2-0.1V9.1L72.9,0z M145.1,45l-72.2,8.9L0.6,45V9.6
		l72.2-8.9l72.2,8.9V45z"/>
</g>
</svg>
