<?xml version="1.0" encoding="utf-8"?>
<!-- Generator: Adobe Illustrator 18.1.1, SVG Export Plug-In . SVG Version: 6.00 Build 0)  -->
<svg version="1.1" id="Layer_1" xmlns="http://www.w3.org/2000/svg" xmlns:xlink="http://www.w3.org/1999/xlink" x="0px" y="0px"
	 viewBox="0 0 151.9 62.7" enable-background="new 0 0 151.9 62.7" xml:space="preserve">
<g>
	<path fill="#0096BD" d="M125.2,33.2h-2.1v3.2h2.1c0.9,0,2.3-0.2,2.3-1.6C127.5,33.1,125.2,33.2,125.2,33.2z"/>
	<polygon fill="#0096BD" points="39.2,30.8 37.7,35.2 40.8,35.2 	"/>
	<path fill="#0096BD" d="M30.8,29.5c0-1.6-2.1-1.6-2.1-1.6H27l2,3.2C29.5,31,30.8,30.7,30.8,29.5z"/>
	<path fill="#0096BD" d="M20.2,29.5c0-1.6-2.1-1.6-2.1-1.6h-1.7l2,3.2C18.9,31,20.2,30.7,20.2,29.5z"/>
	<path fill="#0096BD" d="M8.3,16.2v31.1l68.1,6.1l68.1-6.1V16.2l-68.1-6.1L8.3,16.2z M139.5,18.6H13.3l63.1-4.3L139.5,18.6z
		 M135.5,33.2c-0.1,0-1,0-1.9-0.4c-1.3-0.6-2.1-1.7-2.1-3.3c0-2.4,1.9-3.9,4-3.9c2.2,0,3.9,1.5,3.9,3.7h-2.1c0-1.1-0.9-1.5-1.8-1.5
		c-1,0-1.9,0.6-1.9,1.8c0,1.1,0.9,1.6,1.9,1.6c0.1,0,1,0,1.9,0.4c1.3,0.6,2.1,1.9,2.1,3.4c0,2.4-1.9,3.8-4,3.8c-2.2-0.1-4-1.3-4-3.7
		h2.1c0,1.1,0.9,1.6,1.9,1.6c1,0,1.9-0.6,1.9-1.6C137.4,33.9,136.4,33.2,135.5,33.2z M129.6,34.9c0,3.5-3.6,3.7-4.4,3.7H121V25.8
		h4.2c0,0,4.2-0.1,4.2,3.6c0,1.7-1,2.5-2.1,2.8C129.7,32.7,129.6,34.9,129.6,34.9z M119.5,38.5h-2.3l-0.6-1.5h-4.5l-0.5,1.5h-2.3
		l5.1-13.1L119.5,38.5z M101.6,27.7v-1.9h7.5v1.9h-2.7v10.8h-2.1V27.7H101.6z M93.1,31.1v2.1h-5.3v3.2h6.4v2.1h-8.5V25.8h8.5v2.1
		h-6.4v3.2H93.1z M78.9,36.6c1.2,0,2.2-0.5,3-1.2l1.5,1.5c-1.1,1.1-2.7,1.9-4.5,1.9c-3.5,0-6.4-2.6-6.4-6.6c0-3.8,2.7-6.6,6.4-6.6
		c1.8,0,3.4,0.7,4.5,1.9L81.9,29c-0.8-0.8-1.8-1.2-3-1.2c-2.6,0-4.2,1.9-4.2,4.4C74.7,34.9,76.6,36.6,78.9,36.6z M65.8,27.7v-1.9h5
		v1.9h-1.4v8.9h1.5v1.9h-5.1v-1.9h1.5v-8.9H65.8z M57.4,27.7v-1.9h7.5v1.9h-2.7v10.8H60V27.7H57.4z M51.7,36.6c1.2,0,2.2-0.5,3-1.2
		l1.5,1.5c-1.1,1.1-2.7,1.9-4.5,1.9c-3.5,0-6.4-2.6-6.4-6.6c0-3.8,2.7-6.6,6.4-6.6c1.8,0,3.4,0.7,4.5,1.9L54.7,29
		c-0.8-0.8-1.8-1.2-3-1.2c-2.6,0-4.2,1.9-4.2,4.4C47.5,34.9,49.4,36.6,51.7,36.6z M44.3,38.5H42L41.5,37H37l-0.5,1.5h-2.3l5.1-13.1
		L44.3,38.5z M24.5,27.9v-2.1h4.2c0,0,4.3,0,4.3,3.7c0,2.3-1.6,3.2-2.8,3.5l3.5,5.5h-2.5l-3.3-5.3h-1.2v5.3h-2.1v-7.4h2L24.5,27.9z
		 M13.8,27.9v-2.1h4.2c0,0,4.2,0,4.2,3.7c0,3.7-4.2,3.7-4.2,3.7H16v5.3h-2.1v-7.4h2L13.8,27.9z M13.3,44.9h126.3l-63.1,4.3
		L13.3,44.9z"/>
	<polygon fill="#0096BD" points="114.4,30.8 112.9,35.2 116,35.2 	"/>
	<path fill="#0096BD" d="M125.2,27.9h-2.1v3.2h2.1c0,0,2.1,0,2.1-1.6C127.3,27.8,125.2,27.9,125.2,27.9z"/>
	<path fill="#0096BD" d="M76.4,4.5L3.7,13.6l-0.2,0.1v36.2L76.4,59l72.7-9.1l0.2-0.1V13.7L76.4,4.5z M148.6,49.5l-72.2,8.9L4.2,49.5
		V14.1l72.2-8.9l72.2,8.9V49.5z"/>
</g>
</svg>
