<?xml version="1.0" encoding="utf-8"?>
<!-- Generator: Adobe Illustrator 18.1.1, SVG Export Plug-In . SVG Version: 6.00 Build 0)  -->
<svg version="1.1" id="Layer_1" xmlns="http://www.w3.org/2000/svg" xmlns:xlink="http://www.w3.org/1999/xlink" x="0px" y="0px"
	 width="92.3px" height="90.7px" viewBox="0 0 92.3 90.7" enable-background="new 0 0 92.3 90.7" xml:space="preserve">
<g>
	<path fill="#FFFFFF" d="M22.6,21.1h1.3c2,0,3.6-1.6,3.6-3.6V3.7c0-2-1.6-3.6-3.6-3.6h-1.3c-2,0-3.6,1.6-3.6,3.6v13.8
		C18.9,19.5,20.6,21.1,22.6,21.1L22.6,21.1z M22.6,21.1"/>
	<g>
		<path fill="#FFFFFF" d="M69.2,21.1h1.3c2,0,3.6-1.6,3.6-3.6V3.6c0-2-1.6-3.6-3.6-3.6h-1.3c-2,0-3.6,1.6-3.6,3.6v13.8
			C65.6,19.4,67.2,21.1,69.2,21.1L69.2,21.1z M69.2,21.1"/>
		<path fill="#FFFFFF" d="M86.4,7.5h-9.3v10.9c0,3.6-3,5.6-6.6,5.6h-1.3c-3.6,0-6.6-3-6.6-6.6V7.5H30.5v10c0,3.6-3,6.6-6.6,6.6h-1.3
			c-3.6,0-6.6-3-6.6-6.6v-10H5.9C2.7,7.5,0,10.1,0,13.4v71.4c0,3.3,2.7,5.9,5.9,5.9h80.5c3.3,0,5.9-2.7,5.9-5.9V13.4
			C92.3,10.1,89.7,7.5,86.4,7.5L86.4,7.5z M86.4,84.8H5.9V30.9h80.5L86.4,84.8L86.4,84.8L86.4,84.8z M86.4,84.8"/>
	</g>
	<path fill="#FFFFFF" d="M49.2,49h10.6c0.4,0,0.8-0.3,0.8-0.8V39c0-0.4-0.3-0.8-0.8-0.8H49.2c-0.4,0-0.8,0.3-0.8,0.8v9.2
		C48.5,48.6,48.8,49,49.2,49L49.2,49z M49.2,49"/>
	<path fill="#FFFFFF" d="M66.5,49h10.6c0.4,0,0.8-0.3,0.8-0.8V39c0-0.4-0.3-0.8-0.8-0.8H66.5c-0.4,0-0.8,0.3-0.8,0.8v9.2
		C65.8,48.6,66.1,49,66.5,49L66.5,49z M66.5,49"/>
	<path fill="#FFFFFF" d="M14.6,64h10.6c0.4,0,0.8-0.3,0.8-0.8v-9.2c0-0.4-0.3-0.8-0.8-0.8H14.6c-0.4,0-0.8,0.3-0.8,0.8v9.2
		C13.8,63.7,14.2,64,14.6,64L14.6,64z M14.6,64"/>
	<path fill="#FFFFFF" d="M31.9,64h10.6c0.4,0,0.8-0.3,0.8-0.8v-9.2c0-0.4-0.3-0.8-0.8-0.8H31.9c-0.4,0-0.8,0.3-0.8,0.8v9.2
		C31.1,63.7,31.5,64,31.9,64L31.9,64z M31.9,64"/>
	<path fill="#FFFFFF" d="M49.2,64h10.6c0.4,0,0.8-0.3,0.8-0.8v-9.2c0-0.4-0.3-0.8-0.8-0.8H49.2c-0.4,0-0.8,0.3-0.8,0.8v9.2
		C48.5,63.7,48.8,64,49.2,64L49.2,64z M49.2,64"/>
	<path fill="#FFFFFF" d="M66.5,64h10.6c0.4,0,0.8-0.3,0.8-0.8v-9.2c0-0.4-0.3-0.8-0.8-0.8H66.5c-0.4,0-0.8,0.3-0.8,0.8v9.2
		C65.8,63.7,66.1,64,66.5,64L66.5,64z M66.5,64"/>
	<path fill="#FFFFFF" d="M25.2,68.3H14.6c-0.4,0-0.8,0.3-0.8,0.8v9.2c0,0.4,0.3,0.8,0.8,0.8h10.6c0.4,0,0.8-0.3,0.8-0.8v-9.2
		C26,68.7,25.6,68.3,25.2,68.3L25.2,68.3z M25.2,68.3"/>
	<path fill="#FFFFFF" d="M42.5,68.3H31.9c-0.4,0-0.8,0.3-0.8,0.8v9.2c0,0.4,0.3,0.8,0.8,0.8h10.6c0.4,0,0.8-0.3,0.8-0.8v-9.2
		C43.3,68.7,42.9,68.3,42.5,68.3L42.5,68.3z M42.5,68.3"/>
	<path fill="#FFFFFF" d="M59.8,68.3H49.2c-0.4,0-0.8,0.3-0.8,0.8v9.2c0,0.4,0.3,0.8,0.8,0.8h10.6c0.4,0,0.8-0.3,0.8-0.8v-9.2
		C60.6,68.7,60.3,68.3,59.8,68.3L59.8,68.3z M59.8,68.3"/>
	<path fill="#FFFFFF" d="M77.1,68.3H66.5c-0.4,0-0.8,0.3-0.8,0.8v9.2c0,0.4,0.3,0.8,0.8,0.8h10.6c0.4,0,0.8-0.3,0.8-0.8v-9.2
		C77.9,68.7,77.6,68.3,77.1,68.3L77.1,68.3z M77.1,68.3"/>
</g>
</svg>
