<?xml version="1.0" encoding="utf-8"?>
<!-- Generator: Adobe Illustrator 18.1.1, SVG Export Plug-In . SVG Version: 6.00 Build 0)  -->
<svg version="1.1" id="Layer_1" xmlns="http://www.w3.org/2000/svg" xmlns:xlink="http://www.w3.org/1999/xlink" x="0px" y="0px"
	 width="67.2px" height="100.6px" viewBox="0 0 67.2 100.6" enable-background="new 0 0 67.2 100.6" xml:space="preserve">
<path fill="#FFFFFF" d="M48,19.2h-0.4c0.2-0.7,0.3-1.4,0.3-2.2c0-0.6-0.1-1.1-0.2-1.6c4.1-0.2,7.4-3.5,7.4-7.7
	c0-4.3-3.4-7.7-7.7-7.7H19.8c-4.3,0-7.7,3.5-7.7,7.7c0,4.1,3.3,7.5,7.4,7.7c-0.1,0.5-0.2,1.1-0.2,1.6c0,0.8,0.1,1.5,0.3,2.2h-0.4
	C8.6,19.2,0,28.2,0,39.3v41.1c0,11.1,8.6,20.1,19.2,20.1H48c10.6,0,19.2-9,19.2-20.1V39.3C67.2,28.2,58.6,19.2,48,19.2L48,19.2z
	 M32.2,68.3H13.4c-3.2,0-5.8-2.6-5.8-5.8c0-3.2,2.6-5.8,5.8-5.8h18.8c3.2,0,5.8,2.6,5.8,5.8C37.9,65.7,35.4,68.3,32.2,68.3
	L32.2,68.3z M40.9,50.4H13.4c-3.2,0-5.8-2.6-5.8-5.8c0-3.2,2.6-5.8,5.8-5.8h27.5c3.2,0,5.8,2.6,5.8,5.8
	C46.6,47.8,44.1,50.4,40.9,50.4L40.9,50.4z M40.9,50.4"/>
</svg>
