<?xml version="1.0" encoding="utf-8"?>
<!-- Generator: Adobe Illustrator 18.1.1, SVG Export Plug-In . SVG Version: 6.00 Build 0)  -->
<svg version="1.1" id="Layer_1" xmlns="http://www.w3.org/2000/svg" xmlns:xlink="http://www.w3.org/1999/xlink" x="0px" y="0px"
	 width="103.5px" height="83px" viewBox="0 0 103.5 83" enable-background="new 0 0 103.5 83" xml:space="preserve">
<g>
	<path fill="#FFFFFF" d="M57.2,36.4h10.9c9.2-5,12.6-14.1,13.8-18.8c0.4-1.6-0.7-3.2-2.3-3.4c-14.2-2-21.4,1.9-26.4,9.9
		c0.4,0.8,0.7,1.7,1,2.5c0.8,2,1.3,4.4,1.5,6.7c6.9-3.9,12.8-8.8,14.9-10.3C69.2,24.7,64.9,30,57.2,36.4L57.2,36.4z M57.2,36.4"/>
	<path fill="#FFFFFF" d="M0,4.7c1.2,6.6,6.1,24.2,24,31.6h21.4C38.7,24,26.5,18,21,14.6c4.2,0.8,17.1,5.2,28.8,17.4
		c0.9,0.9,2.7,2.9,2.8,2.9C51.3,15.7,33.4,0,14.5,0c-3.9,0-8,0.5-12.4,1.6C0.7,1.9-0.2,3.3,0,4.7L0,4.7z M0,4.7"/>
	<path fill="#FFFFFF" d="M103.5,42.4c0-1.5-1.2-2.8-2.8-2.8h-85c-1.5,0-2.8,1.2-2.8,2.8v0.3C12.9,65,30.9,83,53.1,83h10.2
		c22.2,0,40.2-18,40.2-40.2L103.5,42.4L103.5,42.4z M103.5,42.4"/>
</g>
</svg>
