<?xml version="1.0" encoding="utf-8"?>
<!-- Generator: Adobe Illustrator 18.1.1, SVG Export Plug-In . SVG Version: 6.00 Build 0)  -->
<svg version="1.1" id="Layer_1" xmlns="http://www.w3.org/2000/svg" xmlns:xlink="http://www.w3.org/1999/xlink" x="0px" y="0px"
	 width="101.4px" height="99.9px" viewBox="0 0 101.4 99.9" enable-background="new 0 0 101.4 99.9" xml:space="preserve">
<g>
	<path fill-rule="evenodd" clip-rule="evenodd" fill="#FFFFFF" d="M61.4,58c3.8,0,7.4,1,10.5,2.8l-1.6,2.8c2.7,1.6,4.9,3.8,6.5,6.5
		l2.8-1.6c1.8,3.1,2.8,6.7,2.8,10.5h-3.2c0,3.2-0.9,6.3-2.4,8.9l2.8,1.6c-1.8,3.2-4.5,5.8-7.7,7.7l-1.6-2.8
		c-2.6,1.5-5.6,2.4-8.9,2.4v3.2l0,0v-9.6l0,0c6.3,0,11.4-5.1,11.4-11.4c0-6.3-5.1-11.4-11.4-11.4l0,0v-6.3l0,0V58z M61.4,99.9
		c-3.8,0-7.4-1-10.5-2.8l1.6-2.8c-2.7-1.6-4.9-3.8-6.5-6.5l-2.8,1.6c-1.8-3.1-2.8-6.7-2.8-10.5h3.2c0-3.2,0.9-6.3,2.4-8.9l-2.8-1.6
		c1.8-3.2,4.5-5.8,7.7-7.7l1.6,2.8c2.6-1.5,5.6-2.4,8.9-2.4v6.3c-6.3,0-11.4,5.1-11.4,11.4c0,6.3,5.1,11.4,11.4,11.4V99.9z"/>
	<path fill-rule="evenodd" clip-rule="evenodd" fill="#FFFFFF" d="M89.2,47.8c2.2,0,4.3,0.6,6.1,1.6L94.3,51
		c1.6,0.9,2.9,2.2,3.8,3.8l1.6-0.9c1,1.8,1.6,3.9,1.6,6.1h-1.9c0,1.9-0.5,3.6-1.4,5.2l1.6,0.9c-1.1,1.8-2.6,3.4-4.5,4.5l-0.9-1.6
		c-1.5,0.9-3.3,1.4-5.2,1.4v-3.7c3.7,0,6.6-3,6.6-6.6c0-3.7-3-6.6-6.6-6.6v-3.7V47.8z M89.2,70.3v1.9c-2.2,0-4.3-0.6-6.1-1.6
		l0.9-1.6c-1.6-0.9-2.9-2.2-3.8-3.8l-1.6,0.9c-1-1.8-1.6-3.9-1.6-6.1h1.9c0-1.9,0.5-3.6,1.4-5.1l-1.6-0.9c1.1-1.8,2.6-3.4,4.5-4.5
		L84,51c1.5-0.9,3.3-1.4,5.1-1.4v3.7c-3.7,0-6.6,3-6.6,6.6c0,3.7,3,6.6,6.6,6.6V70.3z"/>
	<path fill-rule="evenodd" clip-rule="evenodd" fill="#FFFFFF" d="M33.3,0v6.1c2.9,0,5.7,0.5,8.4,1.3l1.9-5.8L48.2,4l4.6,2.4l-3.6,5
		c2.3,1.7,4.3,3.7,6,6l5-3.6l2.4,4.6l2.4,4.6l-5.8,1.9c0.9,2.6,1.3,5.5,1.3,8.4h6.1l-0.8,5.1l-0.8,5.1l-5.8-1.9
		c-0.9,2.7-2.2,5.3-3.9,7.6l5,3.6l-3.7,3.7l-3.7,3.7l-3.6-5c-2.3,1.7-4.8,3-7.6,3.9l1.9,5.8l-5.1,0.8l-5.1,0.8v-6.1l0,0V52l0,0
		C43.6,52,52,43.6,52,33.3c0-10.4-8.4-18.8-18.8-18.8l0,0V0L33.3,0z M33.3,60.4c-2.9,0-5.7-0.5-8.4-1.3L23,64.9l-4.6-2.4l-4.6-2.4
		l3.6-5c-2.3-1.7-4.3-3.7-6-6l-5,3.6L4,48.2l-2.4-4.6l5.8-1.9c-0.9-2.6-1.3-5.5-1.3-8.4H0l0.8-5.1L1.6,23l5.8,1.9
		c0.9-2.7,2.2-5.3,3.9-7.6l-5-3.6L10,10l3.7-3.7l3.6,5c2.3-1.7,4.8-3,7.6-3.9L23,1.6l5.1-0.8L33.3,0v14.5
		c-10.4,0-18.8,8.4-18.8,18.8c0,10.4,8.4,18.8,18.8,18.8V60.4z"/>
</g>
</svg>
