<?xml version="1.0" encoding="utf-8"?>
<!-- Generator: Adobe Illustrator 18.1.1, SVG Export Plug-In . SVG Version: 6.00 Build 0)  -->
<svg version="1.1" id="Layer_1" xmlns="http://www.w3.org/2000/svg" xmlns:xlink="http://www.w3.org/1999/xlink" x="0px" y="0px"
	 width="102.2px" height="98.2px" viewBox="0 0 102.2 98.2" enable-background="new 0 0 102.2 98.2" xml:space="preserve">
<g>
	<path fill="#FFFFFF" d="M38.2,32.7L32,26.8c0.7-1.3,1.2-2.8,1.2-4.4c0-5.1-4.1-9.2-9.2-9.2c-5.1,0-9.2,4.1-9.2,9.2
		c0,5.1,4.1,9.2,9.2,9.2c1.8,0,3.5-0.5,4.9-1.4L35,36C35.9,34.8,37,33.7,38.2,32.7L38.2,32.7z M38.2,32.7"/>
	<path fill="#FFFFFF" d="M64.5,31.9L72.7,18c0.8,0.2,1.7,0.4,2.5,0.4c5.1,0,9.2-4.1,9.2-9.2c0-5.1-4.1-9.2-9.2-9.2s-9.2,4.1-9.2,9.2
		c0,2.5,1,4.8,2.7,6.5l-8.2,13.9C61.9,30.2,63.2,31,64.5,31.9L64.5,31.9z M64.5,31.9"/>
	<path fill="#FFFFFF" d="M92.9,43.6c-4,0-7.3,2.5-8.6,6l-11.5-1.1c0,0.1,0,0.2,0,0.3c0,1.5-0.2,3-0.5,4.4l11.5,1.1
		c0.7,4.4,4.5,7.8,9.1,7.8c5.1,0,9.2-4.1,9.2-9.2C102.2,47.7,98,43.6,92.9,43.6L92.9,43.6z M92.9,43.6"/>
	<path fill="#FFFFFF" d="M61.3,79.8l-2.6-11.2c-1.4,0.5-3,0.9-4.5,1l2.6,11.2c-3,1.5-5,4.6-5,8.1c0,5.1,4.1,9.2,9.2,9.2
		c5.1,0,9.2-4.1,9.2-9.2C70.2,84,66.2,80,61.3,79.8L61.3,79.8z M61.3,79.8"/>
	<path fill="#FFFFFF" d="M31.2,53.2l-14.3,4.8c-1.6-2.5-4.5-4.2-7.7-4.2C4.1,53.8,0,57.9,0,63s4.1,9.2,9.2,9.2s9.2-4.1,9.2-9.2
		c0-0.2,0-0.4-0.1-0.6l14.3-4.8C32.1,56.2,31.5,54.7,31.2,53.2L31.2,53.2z M31.2,53.2"/>
	<path fill="#FFFFFF" d="M67.6,48.7c0,8.7-7.1,15.8-15.8,15.8c-8.7,0-15.8-7.1-15.8-15.8c0-8.7,7.1-15.8,15.8-15.8
		C60.5,32.9,67.6,40,67.6,48.7L67.6,48.7z M67.6,48.7"/>
</g>
</svg>
