<?xml version="1.0" encoding="utf-8"?>
<!-- Generator: Adobe Illustrator 18.1.1, SVG Export Plug-In . SVG Version: 6.00 Build 0)  -->
<svg version="1.1" id="Layer_1" xmlns="http://www.w3.org/2000/svg" xmlns:xlink="http://www.w3.org/1999/xlink" x="0px" y="0px"
	 width="100.8px" height="86.9px" viewBox="0 0 100.8 86.9" enable-background="new 0 0 100.8 86.9" xml:space="preserve">
<path fill="#FFFFFF" d="M86.1,3.5C82,1.3,77.3,0,72.3,0c-8.8,0-16.7,4-21.9,10.3C45.2,4,37.3,0,28.5,0c-5,0-9.7,1.3-13.8,3.5
	C5.9,8.4,0,17.7,0,28.5c0,3.1,0.5,6,1.4,8.8c0.4,1.8,1,3.6,1.9,5.4h18.4l4.6-7.7c0.7-1.1,1.9-1.8,3.2-1.9c1.2-0.1,2.6,0.6,3.3,1.7
	l6.7,10.3l8.2-22.1c0.5-1.5,2-2.5,3.6-2.5h0c1.6,0,3,1,3.6,2.5l7.3,19.7h12.6c2.1,0,3.8,1.7,3.8,3.8c0,2.1-1.7,3.8-3.8,3.8H59.5
	c-1.6,0-3-1-3.6-2.5l-4.7-12.6L44,54.8c-0.5,1.4-1.7,2.3-3.2,2.5c-0.1,0-0.3,0-0.4,0c-1.3,0-2.5-0.7-3.2-1.7l-7.5-11.5l-2.6,4.3
	c-0.7,1.2-1.9,1.9-3.3,1.9H8c13.6,18.5,42.4,36.7,42.4,36.7s44.1-27.7,49-49.7c0.9-2.8,1.4-5.7,1.4-8.8
	C100.8,17.7,94.9,8.4,86.1,3.5L86.1,3.5z"/>
</svg>
