<?xml version="1.0" encoding="utf-8"?>
<!-- Generator: Adobe Illustrator 18.1.1, SVG Export Plug-In . SVG Version: 6.00 Build 0)  -->
<svg version="1.1" id="Layer_1" xmlns="http://www.w3.org/2000/svg" xmlns:xlink="http://www.w3.org/1999/xlink" x="0px" y="0px"
	 width="105.9px" height="94.4px" viewBox="0 0 105.9 94.4" enable-background="new 0 0 105.9 94.4" xml:space="preserve">
<g>
	<path fill="#FFFFFF" d="M101.8,13.8L37,0.1c-2.7-0.6-5.5,1.2-6,3.9L29.7,12l74.8,15.8l1.2-7.9C106.3,17.1,104.6,14.4,101.8,13.8
		L101.8,13.8z M101.8,13.8"/>
	<path fill="#FFFFFF" d="M74.6,29.5c-0.8-2.7-3.6-4.3-6.3-3.6l-12.3,3.4l-29-6.1l-3.2,15.1L3.8,43.8c-2.7,0.8-4.3,3.6-3.6,6.3
		l11.2,40.5c0.8,2.7,3.6,4.3,6.3,3.6l64.5-17.9c2.7-0.8,4.3-3.6,3.6-6.3l-1.9-7l7.2,1.5c2.7,0.6,5.5-1.2,6-3.9l4.6-21.6l-26-5.5
		L74.6,29.5z M82,50l1.6-7.5c0.2-1.1,1.4-1.9,2.5-1.6l7.5,1.6c1.1,0.2,1.9,1.4,1.6,2.5l-1.6,7.5c-0.2,1.1-1.4,1.9-2.5,1.6l-7.5-1.6
		C82.5,52.3,81.8,51.2,82,50L82,50z M4.9,47.8l17.8-4.9l42.1-11.7l4.5-1.3c0.1,0,0.2,0,0.2,0c0.4,0,0.8,0.2,0.9,0.7l0.5,1.9l1.7,6
		L6.4,56.9L4.2,49C4.1,48.5,4.4,48,4.9,47.8L4.9,47.8z M81.7,71.1c0.1,0.3,0,0.6-0.1,0.7c-0.1,0.2-0.3,0.4-0.6,0.5L16.6,90.1
		c-0.1,0-0.2,0-0.2,0c-0.4,0-0.8-0.2-0.9-0.7L8.9,65.9l66.3-18.4l4,14.6L81.7,71.1z M81.7,71.1"/>
</g>
</svg>
